<svg width="161" height="161" viewBox="0 0 161 161" fill="none" xmlns="http://www.w3.org/2000/svg">
<rect x="3" y="3" width="155" height="155" rx="35.8882" fill="url(#paint0_linear_242_1122)" stroke="#323232" stroke-width="4.64072"/>
<g filter="url(#filter0_d_242_1122)">
<path d="M89.0041 47.61L73.7088 124.359C72.8477 128.619 72.4172 131.406 72.4172 132.72C72.4172 133.989 72.7117 135.349 73.3009 136.799C68.633 139.11 64.4409 140.266 60.7247 140.266C58.3681 140.266 57.1898 139.314 57.1898 137.411C57.1898 136.459 57.643 133.649 58.5494 128.981L74.7284 47.61H65.2793C54.5386 47.61 45.2708 48.6297 37.4758 50.669C38.9714 44.6415 40.9881 40.88 43.526 39.3845C46.0639 37.8889 51.6155 37.1412 60.1809 37.1412H106.203C118.575 37.1412 126.755 32.6772 130.743 23.7492C132.33 26.4231 133.123 28.5758 133.123 30.2073C133.123 36.0988 129.474 40.8347 122.178 44.4149C117.782 46.545 109.443 47.61 97.1616 47.61H89.0041Z" fill="white"/>
<path d="M89.0041 47.61V45.4443H87.2274L86.8802 47.1867L89.0041 47.61ZM73.7088 124.359L75.8315 124.788L75.8327 124.782L73.7088 124.359ZM73.3009 136.799L74.2619 138.74L76.0643 137.847L75.3073 135.984L73.3009 136.799ZM58.5494 128.981L56.4253 128.559L56.4234 128.568L58.5494 128.981ZM74.7284 47.61L76.8525 48.0323L77.3671 45.4443H74.7284V47.61ZM37.4758 50.669L35.3739 50.1475L34.4956 53.6873L38.024 52.7642L37.4758 50.669ZM130.743 23.7492L132.606 22.6443L130.472 19.047L128.766 22.866L130.743 23.7492ZM122.178 44.4149L123.122 46.3639L123.132 46.3592L122.178 44.4149ZM86.8802 47.1867L71.5849 123.935L75.8327 124.782L91.128 48.0332L86.8802 47.1867ZM71.586 123.93C70.7354 128.138 70.2515 131.148 70.2515 132.72H74.5828C74.5828 131.664 74.96 129.099 75.8315 124.788L71.586 123.93ZM70.2515 132.72C70.2515 134.325 70.6239 135.963 71.2945 137.614L75.3073 135.984C74.7995 134.734 74.5828 133.653 74.5828 132.72H70.2515ZM72.3399 134.858C67.8581 137.077 64.0013 138.1 60.7247 138.1V142.431C64.8806 142.431 69.4078 141.143 74.2619 138.74L72.3399 134.858ZM60.7247 138.1C59.7815 138.1 59.4754 137.9 59.4343 137.867C59.4277 137.862 59.4243 137.862 59.4126 137.834C59.3954 137.792 59.3555 137.667 59.3555 137.411H55.0241C55.0241 138.833 55.4872 140.247 56.7128 141.237C57.8499 142.155 59.3114 142.431 60.7247 142.431V138.1ZM59.3555 137.411C59.3555 137.137 59.4365 136.368 59.6677 134.934C59.8891 133.562 60.2241 131.718 60.6753 129.394L56.4234 128.568C55.9683 130.912 55.6235 132.807 55.3917 134.245C55.1697 135.621 55.0241 136.732 55.0241 137.411H59.3555ZM60.6735 129.403L76.8525 48.0323L72.6044 47.1876L56.4253 128.559L60.6735 129.403ZM74.7284 45.4443H65.2793V49.7756H74.7284V45.4443ZM65.2793 45.4443C54.4109 45.4443 44.9496 46.4751 36.9277 48.5739L38.024 52.7642C45.5919 50.7842 54.6663 49.7756 65.2793 49.7756V45.4443ZM39.5777 51.1906C40.2999 48.2799 41.1242 46.0188 42.0187 44.3506C42.9189 42.6716 43.8186 41.7257 44.6255 41.2503L42.4265 37.5187C40.6954 38.5388 39.3179 40.2215 38.2014 42.304C37.079 44.3973 36.1472 47.0307 35.3739 50.1475L39.5777 51.1906ZM44.6255 41.2503C45.5114 40.7282 47.1812 40.2121 49.8822 39.8483C52.5262 39.4921 55.95 39.3068 60.1809 39.3068V34.9755C55.8463 34.9755 52.2117 35.1641 49.304 35.5557C46.4533 35.9397 44.0785 36.5452 42.4265 37.5187L44.6255 41.2503ZM60.1809 39.3068H106.203V34.9755H60.1809V39.3068ZM106.203 39.3068C112.637 39.3068 118.159 38.1475 122.655 35.6942C127.182 33.2233 130.543 29.5067 132.721 24.6325L128.766 22.866C126.955 26.9198 124.232 29.8991 120.58 31.8922C116.895 33.9029 112.141 34.9755 106.203 34.9755V39.3068ZM128.881 24.8542C130.419 27.4471 130.957 29.18 130.957 30.2073H135.288C135.288 27.9716 134.24 25.3991 132.606 22.6443L128.881 24.8542ZM130.957 30.2073C130.957 34.9629 128.105 39.0944 121.224 42.4707L123.132 46.3592C130.844 42.575 135.288 37.2347 135.288 30.2073H130.957ZM121.234 42.466C119.346 43.3808 116.432 44.142 112.353 44.663C108.305 45.1799 103.248 45.4443 97.1616 45.4443V49.7756C103.356 49.7756 108.61 49.5075 112.901 48.9594C117.161 48.4154 120.614 47.5791 123.122 46.3639L121.234 42.466ZM97.1616 45.4443H89.0041V49.7756H97.1616V45.4443Z" fill="white"/>
</g>
<defs>
<filter id="filter0_d_242_1122" x="33.4539" y="23.749" width="101.216" height="123.323" filterUnits="userSpaceOnUse" color-interpolation-filters="sRGB">
<feFlood flood-opacity="0" result="BackgroundImageFix"/>
<feColorMatrix in="SourceAlpha" type="matrix" values="0 0 0 0 0 0 0 0 0 0 0 0 0 0 0 0 0 0 127 0" result="hardAlpha"/>
<feOffset dx="-1.23752" dy="4.02196"/>
<feGaussianBlur stdDeviation="1.39222"/>
<feComposite in2="hardAlpha" operator="out"/>
<feColorMatrix type="matrix" values="0 0 0 0 0 0 0 0 0 0.09625 0 0 0 0 0.4375 0 0 0 0.25 0"/>
<feBlend mode="normal" in2="BackgroundImageFix" result="effect1_dropShadow_242_1122"/>
<feBlend mode="normal" in="SourceGraphic" in2="effect1_dropShadow_242_1122" result="shape"/>
</filter>
<linearGradient id="paint0_linear_242_1122" x1="80.5" y1="3" x2="80.5" y2="158" gradientUnits="userSpaceOnUse">
<stop stop-color="#2196F3"/>
<stop offset="1" stop-color="#43DDFF"/>
</linearGradient>
</defs>
</svg>
