<svg width="328" height="400" viewBox="0 0 328 400" fill="none" xmlns="http://www.w3.org/2000/svg">
<g filter="url(#filter0_d_405_1080)">
<path d="M179.844 77.6426L130.405 325.714C127.622 339.483 126.23 348.492 126.23 352.74C126.23 356.842 127.182 361.236 129.087 365.924C113.999 373.395 100.449 377.13 88.4373 377.13C80.8202 377.13 77.0116 374.054 77.0116 367.901C77.0116 364.825 78.4764 355.743 81.4061 340.655L133.701 77.6426H103.159C68.4422 77.6426 38.4862 80.9385 13.2909 87.5303C18.1248 68.0479 24.6434 55.8896 32.8465 51.0557C41.0496 46.2217 58.994 43.8047 86.6795 43.8047H235.434C275.425 43.8047 301.865 29.376 314.756 0.518555C319.883 9.16113 322.446 16.1191 322.446 21.3926C322.446 40.4355 310.654 55.7432 287.07 67.3154C272.861 74.2002 245.908 77.6426 206.211 77.6426H179.844Z" fill="#00B4D8"/>
<path d="M179.844 77.6426V70.6426H174.101L172.979 76.2744L179.844 77.6426ZM130.405 325.714L137.266 327.101L137.268 327.091L137.27 327.082L130.405 325.714ZM129.087 365.924L132.193 372.197L138.019 369.312L135.572 363.289L129.087 365.924ZM81.4061 340.655L74.5405 339.29L74.5374 339.306L74.5344 339.321L81.4061 340.655ZM133.701 77.6426L140.567 79.0077L142.23 70.6426H133.701V77.6426ZM13.2909 87.5303L6.49686 85.8445L3.65798 97.2861L15.0626 94.3023L13.2909 87.5303ZM314.756 0.518555L320.776 -3.05286L313.878 -14.6804L308.364 -2.33645L314.756 0.518555ZM287.07 67.3154L290.122 73.6149L290.138 73.6073L290.154 73.5997L287.07 67.3154ZM172.979 76.2744L123.54 324.346L137.27 327.082L186.709 79.0107L172.979 76.2744ZM123.544 324.327C120.794 337.929 119.23 347.659 119.23 352.74H133.23C133.23 349.326 134.449 341.037 137.266 327.101L123.544 324.327ZM119.23 352.74C119.23 357.929 120.434 363.224 122.601 368.558L135.572 363.289C133.931 359.249 133.23 355.755 133.23 352.74H119.23ZM125.981 359.651C111.494 366.824 99.028 370.13 88.4373 370.13V384.13C101.87 384.13 116.503 379.966 132.193 372.197L125.981 359.651ZM88.4373 370.13C85.3885 370.13 84.3993 369.485 84.2664 369.377C84.245 369.36 84.2341 369.36 84.1963 369.268C84.1408 369.134 84.0116 368.73 84.0116 367.901H70.0116C70.0116 372.499 71.5082 377.069 75.4696 380.268C79.1453 383.237 83.869 384.13 88.4373 384.13V370.13ZM84.0116 367.901C84.0116 367.017 84.2735 364.531 85.0209 359.897C85.7363 355.462 86.8191 349.502 88.2777 341.99L74.5344 339.321C73.0634 346.897 71.949 353.021 71.1995 357.668C70.482 362.116 70.0116 365.709 70.0116 367.901H84.0116ZM88.2717 342.02L140.567 79.0077L126.835 76.2775L74.5405 339.29L88.2717 342.02ZM133.701 70.6426H103.159V84.6426H133.701V70.6426ZM103.159 70.6426C68.0294 70.6426 37.4481 73.9745 11.5191 80.7582L15.0626 94.3023C39.5243 87.9025 68.855 84.6426 103.159 84.6426V70.6426ZM20.0848 89.216C22.4192 79.808 25.0835 72.4996 27.9745 67.1074C30.8842 61.6804 33.7925 58.6232 36.4004 57.0864L29.2927 45.0249C23.6974 48.3221 19.2449 53.761 15.636 60.4922C12.0084 67.2583 8.99653 75.7701 6.49686 85.8445L20.0848 89.216ZM36.4004 57.0864C39.2638 55.399 44.6613 53.7307 53.3915 52.5548C61.9376 51.4037 73.0044 50.8047 86.6795 50.8047V36.8047C72.6691 36.8047 60.921 37.4142 51.5227 38.6801C42.3086 39.9212 34.6323 41.8783 29.2927 45.0249L36.4004 57.0864ZM86.6795 50.8047H235.434V36.8047H86.6795V50.8047ZM235.434 50.8047C256.231 50.8047 274.08 47.0573 288.611 39.1278C303.246 31.1413 314.11 19.128 321.147 3.37356L308.364 -2.33645C302.511 10.7665 293.71 20.3963 281.904 26.8385C269.995 33.3377 254.628 36.8047 235.434 36.8047V50.8047ZM308.735 4.08997C313.707 12.4709 315.446 18.0721 315.446 21.3926H329.446C329.446 14.1662 326.058 5.85139 320.776 -3.05286L308.735 4.08997ZM315.446 21.3926C315.446 36.764 306.228 50.1179 283.987 61.0312L290.154 73.5997C315.081 61.3684 329.446 44.1071 329.446 21.3926H315.446ZM284.018 61.016C277.915 63.9729 268.496 66.4333 255.312 68.1172C242.229 69.788 225.885 70.6426 206.211 70.6426V84.6426C226.234 84.6426 243.215 83.7759 257.085 82.0044C270.854 80.2459 282.016 77.5427 290.122 73.6149L284.018 61.016ZM206.211 70.6426H179.844V84.6426H206.211V70.6426Z" fill="white"/>
</g>
<defs>
<filter id="filter0_d_405_1080" x="0.290771" y="0.518555" width="327.156" height="398.611" filterUnits="userSpaceOnUse" color-interpolation-filters="sRGB">
<feFlood flood-opacity="0" result="BackgroundImageFix"/>
<feColorMatrix in="SourceAlpha" type="matrix" values="0 0 0 0 0 0 0 0 0 0 0 0 0 0 0 0 0 0 127 0" result="hardAlpha"/>
<feOffset dx="-4" dy="13"/>
<feGaussianBlur stdDeviation="4.5"/>
<feComposite in2="hardAlpha" operator="out"/>
<feColorMatrix type="matrix" values="0 0 0 0 0 0 0 0 0 0.09625 0 0 0 0 0.4375 0 0 0 0.25 0"/>
<feBlend mode="normal" in2="BackgroundImageFix" result="effect1_dropShadow_405_1080"/>
<feBlend mode="normal" in="SourceGraphic" in2="effect1_dropShadow_405_1080" result="shape"/>
</filter>
</defs>
</svg>
